<svg xmlns="http://www.w3.org/2000/svg" viewBox="0 0 190 108">
  <defs>
    <linearGradient id="shipHull" x1="18" y1="80" x2="176" y2="44" gradientUnits="userSpaceOnUse">
      <stop stop-color="#08345f"/>
      <stop offset=".6" stop-color="#095fa7"/>
      <stop offset="1" stop-color="#061f38"/>
    </linearGradient>
    <filter id="shadow" x="-25%" y="-40%" width="160%" height="190%">
      <feDropShadow dx="0" dy="8" stdDeviation="5" flood-color="#001222" flood-opacity=".5"/>
      <feDropShadow dx="0" dy="0" stdDeviation="4" flood-color="#23d9ff" flood-opacity=".32"/>
    </filter>
  </defs>
  <g filter="url(#shadow)" transform="rotate(-8 95 54)">
    <path d="M13 64c39 11 111 11 164-6-8 22-31 34-72 37-42 3-77-1-90-17-4-5-5-10-2-14Z" fill="url(#shipHull)"/>
    <path d="M25 79c46 6 98 6 144-8-12 13-34 21-65 23-36 2-67-2-79-15Z" fill="#6d1520"/>
    <g stroke="#071525" stroke-width="2">
      <rect x="48" y="37" width="18" height="13" rx="2" fill="#1188e8"/>
      <rect x="68" y="34" width="18" height="13" rx="2" fill="#f4a62a"/>
      <rect x="88" y="36" width="18" height="13" rx="2" fill="#d9392f"/>
      <rect x="108" y="33" width="18" height="13" rx="2" fill="#26a84f"/>
      <rect x="58" y="50" width="18" height="13" rx="2" fill="#f4a62a"/>
      <rect x="78" y="48" width="18" height="13" rx="2" fill="#d9392f"/>
      <rect x="98" y="49" width="18" height="13" rx="2" fill="#1188e8"/>
      <rect x="118" y="47" width="18" height="13" rx="2" fill="#26a84f"/>
    </g>
    <path d="M138 29h30v29h-30z" fill="#e8eef6" stroke="#9fb0c2" stroke-width="2"/>
    <path d="M142 36h20M142 43h20" stroke="#26cfff" stroke-width="3" stroke-linecap="round"/>
    <path d="M26 62c49 7 100 5 143-6" stroke="#2ee4ff" stroke-width="4" stroke-linecap="round"/>
  </g>
</svg>
