<svg xmlns="http://www.w3.org/2000/svg" viewBox="0 0 170 100">
  <defs>
    <linearGradient id="metal" x1="22" y1="70" x2="146" y2="22" gradientUnits="userSpaceOnUse">
      <stop stop-color="#6f7f8f"/>
      <stop offset=".35" stop-color="#d7dfe8"/>
      <stop offset=".76" stop-color="#8b98a8"/>
      <stop offset="1" stop-color="#3a4654"/>
    </linearGradient>
    <linearGradient id="lime" x1="20" y1="70" x2="145" y2="28" gradientUnits="userSpaceOnUse">
      <stop stop-color="#9dff38"/>
      <stop offset=".45" stop-color="#25b7ff"/>
      <stop offset="1" stop-color="#0c55d8"/>
    </linearGradient>
    <filter id="shadow" x="-25%" y="-40%" width="160%" height="190%">
      <feDropShadow dx="0" dy="8" stdDeviation="5" flood-color="#001222" flood-opacity=".55"/>
      <feDropShadow dx="0" dy="0" stdDeviation="5" flood-color="#27a8ff" flood-opacity=".35"/>
    </filter>
  </defs>
  <g filter="url(#shadow)" transform="rotate(-15 85 50)">
    <path d="M14 56c22-17 66-31 118-39 14-2 28 5 31 15 1 5-2 8-8 9L39 71c-13 3-28-3-32-8-2-3 1-5 7-7Z" fill="url(#metal)"/>
    <path d="M36 66 154 36c2-.5 4 0 5 2-4 4-12 6-22 9L48 73c-8 2-15 0-22-3l10-4Z" fill="#182230" opacity=".72"/>
    <path d="M68 45 26 10c-3-3-2-7 3-7l18 1 56 35-35 6Z" fill="#c3ccd6"/>
    <path d="M83 41 142 8c6-3 13-2 15 3l-3 12-47 26-24-8Z" fill="#b8c3cf"/>
    <path d="M48 62 13 86c-5 3-3 8 3 8l50-14 16-22-34 4Z" fill="#c8d1da"/>
    <path d="M101 51 143 83c5 4 12 1 12-4l-3-11-34-24-17 7Z" fill="#b6c0ca"/>
    <path d="M28 57c5-6 17-11 30-13L45 59l-17-2Z" fill="#071522"/>
    <path d="m43 63 91-23" stroke="url(#lime)" stroke-width="4" stroke-linecap="round"/>
    <path d="M122 15 147 2c7-3 12 0 11 7l-5 26-31-20Z" fill="#253141"/>
    <path d="M125 17 153 7" stroke="#9dff38" stroke-width="5" stroke-linecap="round"/>
    <g fill="#12324d">
      <circle cx="56" cy="64" r="7"/><circle cx="78" cy="59" r="7"/><circle cx="101" cy="53" r="7"/><circle cx="123" cy="48" r="7"/>
    </g>
    <g fill="#1fb6ff">
      <circle cx="56" cy="64" r="3"/><circle cx="78" cy="59" r="3"/><circle cx="101" cy="53" r="3"/><circle cx="123" cy="48" r="3"/>
    </g>
  </g>
</svg>
